<svg width="14" height="16" viewBox="0 0 14 16" fill="none" xmlns="http://www.w3.org/2000/svg">
<path fill-rule="evenodd" clip-rule="evenodd" d="M2.0783 1.97656C3.38635 0.713958 5.14775 0.00429336 6.98411 1.94165e-05C8.82048 -0.00425452 10.5853 0.697204 11.8995 1.95371H11.901L11.9259 1.97656C14.6832 4.63339 14.6886 8.90092 11.9586 11.5311L7.54772 15.7811C7.40223 15.9214 7.20626 16 7.0021 16C6.79795 16 6.60198 15.9214 6.45648 15.7811L2.04564 11.5311C1.39807 10.9109 0.883533 10.1702 0.532245 9.3525C0.180957 8.5348 0 7.65659 0 6.76944C0 5.88228 0.180957 5.00407 0.532245 4.18638C0.883533 3.36868 1.39807 2.62799 2.04564 2.0078L2.0783 1.97656ZM7.00016 3.80899C6.69373 3.80899 6.39031 3.86811 6.10722 3.98298C5.82412 4.09785 5.56689 4.26622 5.35022 4.47847C5.13354 4.69073 4.96167 4.94271 4.8444 5.22003C4.72714 5.49735 4.66679 5.79458 4.66679 6.09475C4.66679 6.39493 4.72714 6.69216 4.8444 6.96948C4.96167 7.2468 5.13354 7.49878 5.35022 7.71104C5.56689 7.92329 5.82412 8.09166 6.10722 8.20653C6.39031 8.3214 6.69373 8.38052 7.00016 8.38052C7.61901 8.38052 8.21251 8.1397 8.6501 7.71104C9.08769 7.28237 9.33353 6.70098 9.33353 6.09475C9.33353 5.48853 9.08769 4.90714 8.6501 4.47847C8.21251 4.04981 7.61901 3.80899 7.00016 3.80899Z" fill="#919191"/>
</svg>
