<svg width="14" height="17" viewBox="0 0 14 17" fill="none" xmlns="http://www.w3.org/2000/svg">
<path d="M5.92121 5.76419L4.30898 6.29079V9.09302H2.54698V5.17907H2.56019L7.20131 3.66251C7.41627 3.58898 7.65062 3.55181 7.89025 3.55893C8.36894 3.57011 8.83191 3.71463 9.21502 3.97247C9.59812 4.23031 9.88239 4.58871 10.0284 4.998C10.1923 5.45924 10.3421 5.77051 10.4778 5.93181C10.8881 6.42232 11.4199 6.82041 12.0312 7.0946C12.6426 7.36879 13.3166 7.51157 14 7.51163V9.09302C13.0902 9.09369 12.1916 8.91344 11.3687 8.56522C10.5458 8.217 9.8191 7.70947 9.24083 7.07912L8.62677 10.2071L10.476 11.5995V17H8.71399V12.3365L6.71411 10.831L6.07363 14.0942L0 13.1335L0.306589 11.5758L4.64464 12.2621L5.92121 5.76419ZM9.15449 3.16279C8.68718 3.16279 8.23901 2.99618 7.90857 2.69961C7.57813 2.40304 7.39249 2.00081 7.39249 1.5814C7.39249 1.16198 7.57813 0.759749 7.90857 0.46318C8.23901 0.166611 8.68718 0 9.15449 0C9.6218 0 10.07 0.166611 10.4004 0.46318C10.7309 0.759749 10.9165 1.16198 10.9165 1.5814C10.9165 2.00081 10.7309 2.40304 10.4004 2.69961C10.07 2.99618 9.6218 3.16279 9.15449 3.16279Z" fill="#919191"/>
</svg>
